<?xml version="1.0"?>
<svg xmlns="http://www.w3.org/2000/svg" viewBox="-24 0 511 511.99867" width="512px" height="512px"><path d="m232.363281 0c13.554688 0 23.210938 9.445312 32.710938 18.742188 5.371093 5.253906 10.675781 10.445312 15.050781 11.902343 4.46875 1.488281 11.984375.355469 19.476562-.773437 12.667969-1.90625 25.28125-3.804688 35.585938 3.75 10.296875 7.546875 12.25 20.191406 14.203125 32.824218 1.132813 7.335938 2.265625 14.664063 4.984375 18.375 2.707031 3.691407 9.289062 6.992188 15.90625 10.308594 11.535156 5.785156 23.152344 11.609375 27.273438 23.984375 4.0625 12.203125-1.527344 23.800781-7.191407 35.5625-3.378906 7.011719-6.796875 14.101563-6.796875 19.429688s3.417969 12.417969 6.796875 19.429687c5.664063 11.761719 11.253907 23.355469 7.191407 35.5625-4.117188 12.371094-15.734376 18.199219-27.273438 23.980469-5.382812 2.699219-10.742188 5.386719-14.011719 8.28125l106.613281 184.660156c2.757813 4.757813 1.132813 10.851563-3.625 13.609375-2.019531 1.167969-4.285156 1.550782-6.429687 1.234375l-.003906.011719-56.648438-8.429688-21.003906 53.214844c-2.003906 5.125-7.78125 7.65625-12.90625 5.652344-2.296875-.898438-4.070313-2.554688-5.148437-4.570312l-32.324219-55.984376h-.003907c-1.160156-1.636718-1.84375-3.632812-1.84375-5.789062 0-5.523438 4.476563-10 10-10 4.042969 0 7.523438 2.398438 9.101563 5.847656l22.152344 38.371094 16.207031-41.058594c1.542969-4.421875 6.046875-7.273437 10.851562-6.570312l44.066407 6.554687-86.878907-150.476562c-1.816406 10.566406-4.5625 20.578125-13.257812 26.953125-10.308594 7.554687-22.917969 5.652344-35.585938 3.746094-7.492187-1.125-15.007812-2.257813-19.480468-.769532-2.082032.691406-4.378906 2.234375-6.792969 4.230469l28.53125 49.417969c1.164063 1.636718 1.847656 3.632812 1.847656 5.792968 0 5.519532-4.476562 10-10 10-4.042969 0-7.523437-2.398437-9.101562-5.851562v.003906l-26.183594-45.351562c-7.515625 6.8125-15.632813 12.402344-26.058594 12.402344-10.429687 0-18.546875-5.59375-26.0625-12.402344l-98.691406 170.933594c-1.078125 2.015624-2.855469 3.671874-5.148437 4.570312-5.125 2-10.902344-.53125-12.90625-5.652344l-21.003907-53.214844-56.648437 8.425782-.003906-.011719c-2.144532.316406-4.40625-.0625-6.429688-1.234375-4.761719-2.753906-6.382812-8.847656-3.625-13.605469l34.601562-59.933593c1.578126-3.449219 5.058594-5.847657 9.097657-5.847657 5.523437 0 10.003906 4.476563 10.003906 10 0 2.15625-.683594 4.15625-1.847656 5.789063l-24.296875 42.085937 44.066406-6.554687c4.804688-.703125 9.308594 2.148437 10.851562 6.566406l16.207032 41.0625 90.871094-157.394531c-2.414063-1.992188-4.710938-3.535157-6.792969-4.230469-4.46875-1.488281-11.988281-.355469-19.476563.773438-12.671875 1.90625-25.28125 3.804687-35.589844-3.75-8.691406-6.371094-11.4375-16.382813-13.261718-26.949219l-22.433594 38.855469c-1.578125 3.449218-5.058594 5.84375-9.097656 5.84375-5.523438 0-10-4.476563-10-10 0-1.480469.324218-2.886719.902344-4.152344v-.003906c.265624-.578126.582031-1.121094.941406-1.632813l31.863281-55.1875c-3.269531-2.898437-8.628906-5.585937-14.007813-8.28125-11.539062-5.785156-23.15625-11.609375-27.273437-23.984375-4.0625-12.203125 1.523437-23.800781 7.1875-35.5625 3.378906-7.011719 6.796875-14.101562 6.796875-19.429688 0-5.328124-3.417969-12.417968-6.796875-19.429687-5.664063-11.761719-11.25-23.355469-7.1875-35.5625 4.117187-12.371094 15.734375-18.199219 27.273437-23.980469 6.613282-3.320312 13.195313-6.617187 15.902344-10.3125 2.71875-3.710937 3.855469-11.039062 4.984375-18.375 1.953125-12.632812 3.910157-25.277344 14.203125-32.824218 10.308594-7.554688 22.917969-5.65625 35.589844-3.75 7.488281 1.128906 15.003906 2.261718 19.476562.773437 4.371094-1.457031 9.675782-6.648437 15.046876-11.902344 9.503906-9.292969 19.160156-18.738281 32.714843-18.738281zm80.933594 400.933594c-5.523437 0-10 4.476562-10 10 0 5.523437 4.476563 10 10 10s10-4.476563 10-10c0-5.523438-4.476563-10-10-10zm-247.90625-55.0625c-5.523437 0-10 4.476562-10 10 0 5.523437 4.476563 10 10 10 5.519531 0 10-4.476563 10-10 0-5.523438-4.480469-10-10-10zm166.972656-275.640625c-28.683593 0-54.652343 11.625-73.449219 30.425781-18.800781 18.796875-30.425781 44.765625-30.425781 73.449219 0 28.683593 11.625 54.652343 30.425781 73.453125 18.796876 18.796875 44.765626 30.425781 73.449219 30.425781 28.683594 0 54.652344-11.628906 73.453125-30.425781 18.796875-18.800782 30.425782-44.769532 30.425782-73.453125 0-28.683594-11.628907-54.652344-30.425782-73.449219-18.800781-18.800781-44.769531-30.425781-73.453125-30.425781zm59.339844 44.539062c-15.1875-15.1875-36.164063-24.578125-59.339844-24.578125-23.171875 0-44.152343 9.390625-59.335937 24.574219-15.1875 15.1875-24.578125 36.164063-24.578125 59.339844 0 23.171875 9.394531 44.152343 24.578125 59.335937 15.183594 15.1875 36.164062 24.578125 59.335937 24.578125 23.175781 0 44.152344-9.390625 59.339844-24.578125 15.183594-15.183594 24.574219-36.164062 24.574219-59.335937s-9.390625-44.152344-24.574219-59.335938zm-116.875 78.019531 31.65625 31.65625c3.894531 3.898438 10.214844 3.898438 14.113281 0l63.3125-63.3125c3.898438-3.898437 3.898438-10.21875 0-14.113281-3.898437-3.898437-10.214844-3.898437-14.113281 0l-56.257813 56.253907-24.597656-24.597657c-3.898437-3.898437-10.21875-3.898437-14.113281 0-3.894531 3.898438-3.894531 10.21875 0 14.113281zm99.058594 105.90625c9.109375-3.03125 18.910156-1.554687 28.675781-.085937 8.621094 1.296875 17.203125 2.589844 20.851562-.085937 3.683594-2.699219 5.007813-11.253907 6.328126-19.800782 1.507812-9.769531 3.019531-19.53125 8.574218-27.105468 5.496094-7.5 14.261719-11.894532 23.074219-16.316407 7.867187-3.941406 15.789063-7.914062 17.292969-12.441406 1.515625-4.542969-2.34375-12.550781-6.253906-20.667969-4.386719-9.105468-8.824219-18.3125-8.824219-28.085937 0-9.773438 4.4375-18.980469 8.824219-28.085938 3.910156-8.117187 7.769531-16.121093 6.253906-20.667969-1.503906-4.527343-9.425782-8.5-17.292969-12.441406-8.8125-4.421875-17.578125-8.816406-23.074219-16.3125-5.554687-7.578125-7.066406-17.339844-8.574218-27.109375-1.320313-8.546875-2.644532-17.101562-6.328126-19.800781-3.644531-2.675781-12.230468-1.382812-20.851562-.085938-9.765625 1.46875-19.566406 2.945313-28.675781-.085937-8.828125-2.9375-15.753907-9.714844-22.769531-16.578125-6.574219-6.4375-13.257813-12.976562-18.753907-12.976562-5.496093 0-12.175781 6.539062-18.753906 12.972656-7.011719 6.863281-13.941406 13.644531-22.765625 16.582031-9.109375 3.03125-18.914062 1.554687-28.679688.085937-8.621093-1.296874-17.203124-2.589843-20.851562.082032-3.683594 2.699218-5.003906 11.257812-6.328125 19.804687-1.507813 9.769531-3.015625 19.527344-8.570313 27.105469-5.5 7.5-14.265624 11.894531-23.078124 16.316406-7.867188 3.941406-15.785157 7.914063-17.292969 12.441406-1.511719 4.542969 2.34375 12.550782 6.253906 20.667969 4.386719 9.101563 8.824219 18.308594 8.824219 28.085938 0 9.773437-4.4375 18.980469-8.824219 28.085937-3.910156 8.117188-7.765625 16.121094-6.253906 20.667969 1.507812 4.527344 9.429687 8.496094 17.292969 12.441406 8.8125 4.417969 17.578124 8.816407 23.078124 16.3125 5.554688 7.578125 7.0625 17.339844 8.570313 27.109375 1.324219 8.546875 2.644531 17.101563 6.328125 19.800782 3.648438 2.675781 12.230469 1.382812 20.851562.085937 9.765626-1.472656 19.566407-2.945313 28.679688.085937 7.597656 2.53125 13.785156 7.902344 19.835938 13.730469.1875.164063.363281.335938.53125.511719.800781.773438 1.601562 1.554688 2.398437 2.339844 6.574219 6.433594 13.257813 12.972656 18.753906 12.972656 5.496094 0 12.175781-6.539062 18.753907-12.972656 6.695312-6.550782 13.683593-13.554688 22.769531-16.582032zm0 0" fill-rule="evenodd" fill="#676a6c"/></svg>
