<?xml version="1.0"?>
<svg xmlns="http://www.w3.org/2000/svg" height="512px" viewBox="0 0 487.10109 487" width="512px"><path d="m182.199219 216.449219c18.945312 0 34.300781-15.355469 34.300781-34.296875 0-18.945313-15.355469-34.300782-34.300781-34.300782-18.941407 0-34.300781 15.355469-34.300781 34.300782.03125 18.929687 15.371093 34.265625 34.300781 34.296875zm0-48.699219c7.898437 0 14.300781 6.402344 14.300781 14.300781 0 7.898438-6.402344 14.300781-14.300781 14.300781-7.898438 0-14.300781-6.402343-14.300781-14.300781 0-7.898437 6.402343-14.300781 14.300781-14.300781zm0 0" fill="#676a6c"/><path d="m294.398438 260.050781c0-18.945312-15.355469-34.300781-34.296876-34.300781-18.945312 0-34.300781 15.355469-34.300781 34.300781 0 18.941407 15.355469 34.300781 34.300781 34.300781 18.929688-.03125 34.265626-15.371093 34.296876-34.300781zm-48.699219 0c0-7.898437 6.402343-14.300781 14.300781-14.300781s14.300781 6.402344 14.300781 14.300781c0 7.898438-6.402343 14.300781-14.300781 14.300781s-14.300781-6.402343-14.300781-14.300781zm0 0" fill="#676a6c"/><path d="m285.300781 156.851562c-1.871093-1.875-4.40625-2.925781-7.050781-2.925781s-5.183594 1.050781-7.050781 2.925781l-111 111c-1.871094 1.867188-2.925781 4.402344-2.925781 7.050782 0 2.644531 1.054687 5.179687 2.925781 7.046875 1.875 1.890625 4.4375 2.9375 7.101562 2.902343 2.652344-.011718 5.199219-1.050781 7.097657-2.902343l111-111c3.824218-3.9375 3.777343-10.214844-.097657-14.097657zm0 0" fill="#676a6c"/><path d="m370.101562 325.652344c9.214844.015625 16.683594 7.480468 16.699219 16.699218 0 5.523438 4.476563 10 10 10 5.523438 0 10-4.476562 10-10-.019531-16.410156-10.917969-30.816406-26.699219-35.300781v-6c0-5.523437-4.480468-10-10-10-5.523437 0-10 4.476563-10 10v6c-17.625 4.988281-28.871093 22.210938-26.351562 40.355469 2.519531 18.140625 18.035156 31.644531 36.351562 31.644531 9.222657 0 16.699219 7.476563 16.699219 16.699219s-7.476562 16.699219-16.699219 16.699219c-9.226562 0-16.703124-7.476563-16.703124-16.699219 0-5.523438-4.476563-10-10-10-5.519532 0-10 4.476562-10 10 .023437 16.410156 10.917968 30.816406 26.703124 35.300781v8.101563c0 5.519531 4.476563 10 10 10 5.519532 0 10-4.480469 10-10v-8.101563c17.621094-4.992187 28.867188-22.210937 26.347657-40.355469-2.519531-18.140624-18.03125-31.644531-36.347657-31.644531-9.226562 0-16.703124-7.476562-16.703124-16.699219 0-9.222656 7.476562-16.699218 16.703124-16.699218zm0 0" fill="#676a6c"/><path d="m421.300781 264.851562 14.300781-21.800781c8.796876-13.347656 8.796876-30.652343 0-44l-16.203124-24.601562c-2.3125-3.597657-3.464844-7.824219-3.296876-12.097657l1.597657-29.699218c.894531-15.867188-7.707031-30.753906-21.898438-37.902344l-26.300781-13.199219c-3.804688-1.90625-6.894531-4.992187-8.800781-8.800781l-13.300781-26.300781c-7.144532-14.191407-22.03125-22.792969-37.898438-21.898438l-29.699219 1.601563c-4.285156.238281-8.53125-.917969-12.101562-3.300782l-24.597657-16.199218c-13.347656-8.800782-30.65625-8.800782-44 0l-24.601562 16.199218c-3.601562 2.3125-7.824219 3.464844-12.101562 3.300782l-29.699219-1.601563c-15.867188-.894531-30.75 7.707031-37.898438 21.898438l-13.199219 26.203125c-1.941406 3.839844-5.0625 6.957031-8.902343 8.898437l-26.300781 13.300781c-14.191407 7.144532-22.792969 22.03125-21.898438 37.898438l1.601562 29.699219c.238282 4.285156-.917968 8.53125-3.300781 12.101562l-16.199219 24.601563c-8.800781 13.34375-8.800781 30.652344 0 44l16.199219 24.597656c2.3125 3.601562 3.464844 7.824219 3.300781 12.101562l-1.601562 29.699219c-.894531 15.867188 7.707031 30.753907 21.898438 37.898438l26.300781 13.300781c3.808593 1.90625 6.894531 4.992188 8.800781 8.800781l13.300781 26.300781c7.164063 14.175782 22.039063 22.769532 37.898438 21.898438l29.699219-1.597656c4.285156-.242188 8.53125.914062 12.101562 3.296875l24.601562 16.203125c13.34375 8.796875 30.652344 8.796875 44 0l21.796876-14.300782c22.445312 46.03125 72.210937 72.117188 122.835937 64.394532 50.625-7.726563 90.34375-47.472656 98.039063-98.101563 7.691406-50.628906-18.429688-100.378906-64.472657-122.792969zm-164.601562 137.800782-24.597657 16.199218c-6.675781 4.398438-15.328124 4.398438-22 0l-24.601562-16.199218c-7.160156-4.710938-15.644531-6.992188-24.199219-6.5l-29.699219 1.597656c-7.949218.394531-15.386718-3.910156-19-11l-13.300781-26.300781c-3.847656-7.644531-10.054687-13.851563-17.699219-17.699219l-26.203124-13.199219c-7.105469-3.597656-11.417969-11.046875-11-19l1.601562-29.699219c.441406-8.550781-1.832031-17.023437-6.5-24.199218l-16.199219-24.601563c-4.402343-6.671875-4.402343-15.328125 0-22l16.300781-24.601562c4.710938-7.15625 6.988282-15.644531 6.5-24.199219l-1.601562-29.699219c-.394531-7.945312 3.914062-15.386719 11-19l26.300781-13.300781c7.644531-3.847656 13.851563-10.050781 17.699219-17.699219l13.300781-26.300781c3.59375-7.105469 11.046875-11.417969 19-11l29.699219 1.601562c8.550781.441407 17.019531-1.835937 24.199219-6.5l24.601562-16.199218c6.671875-4.402344 15.324219-4.402344 22 0l24.398438 16.398437c7.160156 4.710938 15.644531 6.988281 24.199219 6.5l29.703124-1.601562c7.945313-.394531 15.382813 3.914062 19 11l13.296876 26.300781c3.847656 7.648438 10.054687 13.851562 17.703124 17.699219l26.296876 13.300781c7.105468 3.597656 11.421874 11.046875 11 19l-1.597657 29.699219c-.441406 8.550781 1.832031 17.023437 6.5 24.203125l16.199219 24.597656c4.398438 6.671875 4.398438 15.328125 0 22l-16.199219 24.601562c-.199219.300782-.300781.597657-.5.898438-40.816406-11.664062-84.75-.285156-114.769531 29.734375-30.015625 30.015625-41.398438 73.949219-29.730469 114.765625-.402343.007812-.789062.148438-1.101562.402344zm113.402343 64.398437c-53.574218 0-97-43.429687-97-97 0-53.570312 43.425782-97 97-97 53.570313 0 97 43.429688 97 97-.050781 53.550781-43.449218 96.949219-97 97zm0 0" fill="#676a6c"/></svg>
