<?xml version="1.0" encoding="iso-8859-1"?>
<!-- Generator: Adobe Illustrator 19.0.0, SVG Export Plug-In . SVG Version: 6.00 Build 0)  -->
<svg xmlns="http://www.w3.org/2000/svg" xmlns:xlink="http://www.w3.org/1999/xlink" version="1.1" id="Layer_1" x="0px" y="0px" viewBox="0 0 512 512" style="enable-background:new 0 0 512 512;" xml:space="preserve" width="512px" height="512px">
<g>
	<g>
		<path d="M390.598,208.895h-41.893v-54.56c0-4.146-3.362-7.508-7.508-7.508s-7.508,3.361-7.508,7.508v54.56h-20.243V90.815    c0-31.676-25.77-57.446-57.446-57.446s-57.446,25.77-57.446,57.446v118.08h-20.243V92.705c0-42.837,34.851-77.688,77.688-77.688    s77.688,34.851,77.688,77.688v11.575c0,4.146,3.361,7.508,7.508,7.508s7.508-3.362,7.508-7.508V92.705    C348.705,41.587,307.118,0,256,0s-92.705,41.587-92.705,92.705v116.19h-41.893c-17.993,0-32.63,14.638-32.63,32.63v180.102    c0,4.146,3.362,7.508,7.508,7.508c4.146,0,7.508-3.361,7.508-7.508V241.525c0-9.712,7.901-17.614,17.614-17.614h49.402h35.259    h99.874h35.259h49.401c9.712,0,17.614,7.901,17.614,17.614V479.37c0,9.712-7.901,17.614-17.614,17.614H121.402    c-9.712,0-17.614-7.901-17.614-17.614v-3.685c0-4.146-3.362-7.508-7.508-7.508c-4.146,0-7.508,3.361-7.508,7.508v3.685    c0,17.993,14.638,32.63,32.63,32.63h269.196c17.993,0,32.63-14.638,32.63-32.63V241.525    C423.228,223.532,408.591,208.895,390.598,208.895z M298.43,208.895h-0.001h-84.858V90.815c0-23.396,19.034-42.429,42.429-42.429    c23.396,0,42.429,19.034,42.429,42.429V208.895z" fill="#676a6c"/>
	</g>
</g>
<g>
	<g>
		<path d="M266.606,360.4l44.468-44.467c2.929-2.929,2.929-7.678,0-10.606c-2.93-2.929-7.678-2.929-10.607,0L256,349.794    l-44.467-44.467c-2.929-2.929-7.678-2.929-10.606,0c-2.929,2.929-2.929,7.678,0,10.606l44.467,44.467l-44.467,44.467    c-2.93,2.928-2.93,7.677-0.001,10.606c1.464,1.464,3.384,2.197,5.303,2.197s3.839-0.732,5.303-2.197l44.467-44.467l44.467,44.467    c1.465,1.464,3.385,2.197,5.304,2.197c1.919,0,3.839-0.732,5.304-2.197c2.929-2.929,2.929-7.678,0-10.606L266.606,360.4z" fill="#676a6c"/>
	</g>
</g>
<g>
</g>
<g>
</g>
<g>
</g>
<g>
</g>
<g>
</g>
<g>
</g>
<g>
</g>
<g>
</g>
<g>
</g>
<g>
</g>
<g>
</g>
<g>
</g>
<g>
</g>
<g>
</g>
<g>
</g>
</svg>
