<?xml version="1.0"?>
<svg xmlns="http://www.w3.org/2000/svg" height="512px" viewBox="0 0 419.09088 419" width="512px"><path d="m272.765625 129.121094h-24.898437v-8.5c-.027344-24.125-19.578126-43.675782-43.699219-43.699219-4.027344.003906-8.035157.574219-11.902344 1.699219-3.867187-1.125-7.871094-1.695313-11.898437-1.699219-24.125.023437-43.675782 19.574219-43.699219 43.699219v8.5h-4.902344c-.171875-.015625-.347656.019531-.5.097656-.140625-.011719-.28125.023438-.398437.101562-.199219 0-.300782.101563-.5.101563-.101563 0-.300782.097656-.402344.097656-.097656 0-.296875.101563-.398438.101563-.199218.097656-.300781.097656-.5.199218-.101562.101563-.199218.101563-.300781.199219-.199219.101563-.300781.199219-.5.300781-.097656 0-.097656.101563-.199219.101563l-5.800781 3.5c-3.207031 1.898437-7.191406 1.898437-10.398437 0l-5.800782-3.5c-2.792968-1.683594-6.273437-1.722656-9.101562-.101563-2.84375 1.5625-4.605469 4.554688-4.597656 7.800782v130.699218c.007812 15.460938 12.539062 27.988282 28 28h133.199218c15.460938-.011718 27.988282-12.539062 28-28v-130.699218c.054688-2.371094-.847656-4.660156-2.503906-6.355469s-3.925781-2.648437-6.296875-2.644531zm-42.898437-8.5v8.5h-5.800782v-8.5c.019532-7.46875-1.910156-14.808594-5.601562-21.300782 7.136718 4.734376 11.417968 12.734376 11.402344 21.300782zm-51.5 8.5v-8.5c0-9.578125 5.316406-18.359375 13.800781-22.800782 8.480469 4.441407 13.796875 13.222657 13.796875 22.800782v8.5zm-23.800782-8.5c-.019531-8.566406 4.265625-16.566406 11.398438-21.300782-3.691406 6.492188-5.621094 13.832032-5.597656 21.300782v8.5h-5.800782zm-44.199218 148.199218v-116.199218c4.398437 1.097656 9 1.097656 13.398437 0v116.199218c.011719 3.421876.65625 6.8125 1.902344 10h-5.203125c-2.675782.046876-5.253906-.988281-7.15625-2.871093-1.902344-1.882813-2.964844-4.453125-2.941406-7.128907zm153.398437 0c-.015625 5.515626-4.484375 9.984376-10 10h-101.800781c-5.515625-.015624-9.984375-4.484374-10-10v-121.699218h2.703125c.398437 0 .699219.097656 1.097656.097656.371094.019531.738281-.015625 1.101563-.097656h13.699218v29.597656c0 4.972656 4.027344 9 9 9 4.96875 0 9-4.027344 9-9v-29.597656h35.601563c.398437 0 .699219.097656 1.097656.097656.371094.019531.738281-.015625 1.101563-.097656h13.699218v29.597656c0 4.972656 4.027344 9 9 9 4.96875 0 9-4.027344 9-9v-29.597656h15.898438v121.699218zm0 0" fill="#a7b1c2"/><path d="m326.167969 311.921875c66.441406-73.933594 63.410156-186.9375-6.902344-257.203125-72.898437-72.898438-191.5-72.898438-264.5 0-71.648437 71.652344-73.191406 187.332031-3.476563 260.867188 69.710938 73.53125 185.308594 78.160156 260.675782 10.433593l90 90c1.875 1.890625 4.4375 2.9375 7.101562 2.902344 2.652344-.011719 5.199219-1.050781 7.101563-2.902344 1.871093-1.867187 2.921875-4.402343 2.921875-7.050781 0-2.644531-1.050782-5.179688-2.921875-7.046875zm-139.101563 42c-79.644531-.023437-148.1875-56.300781-163.710937-134.417969-15.519531-78.117187 26.296875-156.324218 99.886719-186.792968 73.585937-30.46875 158.449218-4.71875 202.691406 61.507812 44.246094 66.226562 35.550781 154.484375-20.765625 210.800781-31.277344 31.390625-73.789063 48.996094-118.101563 48.902344zm0 0" fill="#a7b1c2"/></svg>
